<?xml version="1.0" standalone="no"?>
<!DOCTYPE svg PUBLIC "-//W3C//DTD SVG 20010904//EN"
 "http://www.w3.org/TR/2001/REC-SVG-20010904/DTD/svg10.dtd">
<svg version="1.0" xmlns="http://www.w3.org/2000/svg"
 width="267.000000pt" height="267.000000pt" viewBox="0 0 267.000000 267.000000"
 preserveAspectRatio="xMidYMid meet">
<metadata>
Created by potrace 1.14, written by Peter Selinger 2001-2017
</metadata>
<g transform="translate(0.000000,267.000000) scale(0.100000,-0.100000)"
fill="#000000" stroke="none">
<path d="M978 2041 l-278 -6 52 -77 51 -78 223 0 224 0 0 -624 0 -624 41 -36
41 -35 44 37 44 36 0 623 0 623 223 0 222 0 53 80 52 80 -238 0 c-132 0 -292
2 -358 3 -65 2 -244 1 -396 -2z"/>
<path d="M580 1760 l0 -90 230 0 230 0 0 -125 0 -125 40 0 40 0 0 165 0 165
-191 0 -190 0 -57 38 c-31 22 -67 44 -79 51 l-23 12 0 -91z"/>
<path d="M2000 1800 l-75 -50 -212 0 -213 0 0 -165 0 -165 40 0 40 0 0 125 0
125 250 0 250 0 0 90 c0 50 -1 90 -2 90 -2 -1 -37 -23 -78 -50z"/>
<path d="M1500 992 l0 -274 38 -61 37 -61 3 287 2 287 138 1 c75 0 132 3 125
5 -7 3 -86 25 -177 48 l-166 43 0 -275z"/>
<path d="M970 1217 l-155 -42 132 -3 133 -3 2 -287 3 -287 43 64 42 64 0 269
0 268 -22 -1 c-13 0 -93 -20 -178 -42z"/>
</g>
</svg>
